<svg xmlns="http://www.w3.org/2000/svg" width="100" height="220" viewBox="0 0 100 220">
  <metadata><?xpacket begin="﻿" id="W5M0MpCehiHzreSzNTczkc9d"?>
<x:xmpmeta xmlns:x="adobe:ns:meta/" x:xmptk="Adobe XMP Core 5.6-c138 79.159824, 2016/09/14-01:09:01        ">
   <rdf:RDF xmlns:rdf="http://www.w3.org/1999/02/22-rdf-syntax-ns#">
      <rdf:Description rdf:about=""/>
   </rdf:RDF>
</x:xmpmeta>
                                                                                                    
                                                                                                    
                                                                                                    
                                                                                                    
                                                                                                    
                                                                                                    
                                                                                                    
                                                                                                    
                                                                                                    
                                                                                                    
                                                                                                    
                                                                                                    
                                                                                                    
                                                                                                    
                                                                                                    
                                                                                                    
                                                                                                    
                                                                                                    
                                                                                                    
                                                                                                    
                           
<?xpacket end="w"?></metadata>
<defs>
    <style>
      .cls-1 {
        fill: #007790;
      }

      .cls-1, .cls-10, .cls-11, .cls-2, .cls-3, .cls-4, .cls-5, .cls-6, .cls-7, .cls-9 {
        fill-rule: evenodd;
      }

      .cls-2 {
        fill: #fff;
      }

      .cls-3, .cls-6 {
        fill: #016f88;
      }

      .cls-4 {
        fill: #98999b;
      }

      .cls-11, .cls-5 {
        fill: #539014;
      }

      .cls-5 {
        stroke: #539014;
      }

      .cls-5, .cls-6 {
        stroke-linejoin: round;
        stroke-width: 1px;
      }

      .cls-6 {
        stroke: #016f88;
      }

      .cls-7 {
        fill: #016074;
      }

      .cls-8 {
        fill: none;
        stroke: #fff;
        stroke-width: 2px;
      }

      .cls-9 {
        fill: #f7f8fa;
      }

      .cls-10 {
        fill: #006e87;
      }
    </style>
  </defs>
  <path class="cls-1" d="M19.916,12.083l0.217,3.3-0.79.22-0.38-3.605Zm3.39,14.926-3.464-.068a16.469,16.469,0,0,1-4.789-12.757l2.606-2.159h0.513L18.591,15.8l-1.141.73,2.916,7.364,1.143-.351L23.7,26.688Zm1.1-.7-2.319-3.1,0.879-.364,2.022,2.9Z"/>
  <path id="Shape_24_copy" data-name="Shape 24 copy" class="cls-2" d="M84.916,133.083l0.217,3.3-0.789.22-0.38-3.606Zm3.39,14.925-3.464-.068a16.469,16.469,0,0,1-4.789-12.757l2.606-2.158h0.513l0.418,3.771-1.141.73,2.916,7.364,1.143-.351,2.192,3.149Zm1.1-.7-2.319-3.1,0.879-.364,2.022,2.9Z"/>
  <path id="search" class="cls-3" d="M30.707,69.293l-5.675-5.675a9,9,0,1,0-1.414,1.414l5.675,5.675A1,1,0,1,0,30.707,69.293ZM18,65a7,7,0,1,1,7-7A7,7,0,0,1,18,65Z"/>
  <path class="cls-4" d="M80.991,18.921l-1.078,1.07-9.9-9.834L70.167,10l-0.158-.157,9.9-9.834,1.078,1.07L72.006,10Z"/>
  <path id="Shape_1_copy" data-name="Shape 1 copy" class="cls-4" d="M60.991,10.156l-9.9,9.835-1.078-1.07L58.994,10,50.009,1.078l1.078-1.07,9.9,9.834L60.833,10Z"/>
  <path class="cls-5" d="M25.665,98.008a10.429,10.429,0,1,0-14.33,0C4.752,100.081,1,105,1,111.641V115H12.844v-1.061H2.061v-2.3a12.519,12.519,0,0,1,2.93-8.436,14.822,14.822,0,0,1,7.57-4.447l1.037-.273-0.846-.659a9.368,9.368,0,1,1,11.5,0l-0.846.659,1.037,0.272a14.823,14.823,0,0,1,7.57,4.447,12.519,12.519,0,0,1,2.93,8.436v2.3H12.761V115H36v-3.358C36,105,32.248,100.081,25.665,98.008Z"/>
  <path id="Rectangle_1_copy" data-name="Rectangle 1 copy" class="cls-3" d="M62.9,67.485L61.485,68.9,53,60.414,44.515,68.9,43.1,67.485,51.586,59,43.1,50.515,44.515,49.1,53,57.586,61.485,49.1,62.9,50.515,54.414,59Z"/>
  <path class="cls-6" d="M64.156,114.823v-1.056H74.938v-2.286a12.416,12.416,0,0,0-2.929-8.393,14.836,14.836,0,0,0-7.57-4.425L63.4,98.392l0.846-.656a9.252,9.252,0,0,0,3.62-7.36,9.368,9.368,0,0,0-18.736,0,9.253,9.253,0,0,0,3.62,7.36L53.6,98.392l-1.037.271a14.835,14.835,0,0,0-7.57,4.425,12.416,12.416,0,0,0-2.929,8.393v2.286H52.844v1.056H41v-3.342c0-6.6,3.751-11.5,10.334-13.565a10.281,10.281,0,0,1-3.264-7.54,10.429,10.429,0,0,1,20.857,0,10.281,10.281,0,0,1-3.264,7.54C72.248,99.979,76,104.876,76,111.481v3.342H64.156Zm-10.41-13.2,0.186-1.039,4.29,0.759L58.5,101.4l0.278-.059,4.29-.759,0.186,1.039-3.925.694,4.5,7.967L58.5,115l-5.332-4.716,4.5-7.967Zm0.765,8.437,3.989,3.528,3.989-3.528L58.5,103.005Z"/>
  <path id="skip_forward_copy_3" data-name="skip forward copy 3" class="cls-7" d="M80.726,40.707a1,1,0,0,0,0-1.414L74.418,33l6.308-6.293a1,1,0,0,0-1.417-1.414l-7.017,7a1,1,0,0,0,0,1.414l7.017,7A1,1,0,0,0,80.726,40.707Z"/>
  <path id="skip_forward_copy_4" data-name="skip forward copy 4" class="cls-7" d="M50.3,40.707a1,1,0,0,1,0-1.414L56.59,33,50.3,26.707a1,1,0,1,1,1.413-1.414l6.993,7a1,1,0,0,1,0,1.414l-6.993,7A1,1,0,0,1,50.3,40.707Z"/>
  <rect class="cls-8" x="5.031" y="165" width="20.938" height="21"/>
  <path class="cls-9" d="M18.288,180.4l-0.584-.586-0.033.033-6.852-6.874-4.649,4.664L5,176.466l5.508-5.526,0.309,0.31,0.309-.31,7.127,7.151,6.576-6.6L26,172.665Zm0.242-7.218a1.934,1.934,0,1,1,1.928-1.934A1.931,1.931,0,0,1,18.53,173.184Z"/>
  <path id="Shape_5_copy" data-name="Shape 5 copy" class="cls-10" d="M42.882,1484.82l-11.314-11.33a19.6,19.6,0,1,1,27.7,0l-11.211,11.22A3.393,3.393,0,0,1,42.882,1484.82Z"/>
  <path id="head" class="cls-10" d="M24.168,142.314A5.981,5.981,0,0,0,26,138v-3a6,6,0,1,0-12,0v3a5.982,5.982,0,0,0,1.832,4.313c-4.572.712-7.832,2.559-7.832,4.71V149a3,3,0,0,0,3,3H29a3,3,0,0,0,3-3v-1.969C32,144.88,28.74,143.028,24.168,142.314ZM16,138v-3a4,4,0,0,1,8,0v3A4,4,0,0,1,16,138Zm14,11a1,1,0,0,1-1,1H11a1,1,0,0,1-1-1v-1.977c0-.233.576-0.985,2.288-1.7A20.909,20.909,0,0,1,20,144a20.886,20.886,0,0,1,7.711,1.323c1.713,0.72,2.29,1.474,2.29,1.708V149Z"/>
  <path id="head_copy" data-name="head copy" class="cls-2" d="M64.168,142.314A5.981,5.981,0,0,0,66,138v-3a6,6,0,1,0-12,0v3a5.982,5.982,0,0,0,1.831,4.313c-4.572.712-7.832,2.559-7.832,4.71V149a3,3,0,0,0,3,3H69a3,3,0,0,0,3-3v-1.969C72,144.88,68.74,143.028,64.168,142.314ZM56,138v-3a4,4,0,0,1,8,0v3A4,4,0,0,1,56,138Zm14,11a1,1,0,0,1-1,1H51a1,1,0,0,1-1-1v-1.977c0-.233.576-0.985,2.288-1.7A20.909,20.909,0,0,1,60,144a20.886,20.886,0,0,1,7.711,1.323c1.713,0.72,2.29,1.474,2.29,1.708V149Z"/>
  <path id="Forma_1" data-name="Forma 1" class="cls-3" d="M65.743,167.935l7.922,6.527a2.418,2.418,0,0,0,2.67,0l7.922-6.527c0.634-.52.49-0.946-0.315-0.946H66.06C65.253,166.989,65.11,167.415,65.743,167.935Zm19.084,1.722-8.656,6.837a2.037,2.037,0,0,1-2.341,0l-8.657-6.837c-0.643-.507-1.169-0.235-1.169.6v11.216A1.5,1.5,0,0,0,65.47,183H84.53A1.5,1.5,0,0,0,86,181.477V170.261C86,169.422,85.47,169.15,84.827,169.657Z"/>
  <path id="Forma_1-2" data-name="Forma 1" class="cls-3" d="M50.009,166l-2.6,0a4.559,4.559,0,0,0-4.806,4.923v2.27H39.991a0.408,0.408,0,0,0-.409.408v3.289a0.409,0.409,0,0,0,.409.408H42.6v8.3a0.409,0.409,0,0,0,.409.408h3.409a0.409,0.409,0,0,0,.409-0.408v-8.3h3.055a0.408,0.408,0,0,0,.409-0.408V173.6a0.409,0.409,0,0,0-.409-0.408H46.831v-1.924c0-.925.221-1.395,1.427-1.395h1.751a0.408,0.408,0,0,0,.408-0.408V166.41A0.409,0.409,0,0,0,50.009,166Z"/>
  <path id="Forma_1_copy" data-name="Forma 1 copy" class="cls-11" d="M65.743,197.935l7.922,6.527a2.418,2.418,0,0,0,2.67,0l7.922-6.527c0.634-.52.49-0.946-0.315-0.946H66.06C65.253,196.989,65.11,197.415,65.743,197.935Zm19.084,1.722-8.656,6.837a2.037,2.037,0,0,1-2.341,0l-8.657-6.837c-0.643-.507-1.169-0.235-1.169.6v11.216A1.5,1.5,0,0,0,65.47,213H84.53A1.5,1.5,0,0,0,86,211.477V200.261C86,199.422,85.47,199.15,84.827,199.657Z"/>
  <path id="Forma_1_copy-2" data-name="Forma 1 copy" class="cls-11" d="M50.009,196l-2.6,0a4.559,4.559,0,0,0-4.806,4.923v2.27H39.991a0.408,0.408,0,0,0-.409.408v3.289a0.409,0.409,0,0,0,.409.408H42.6v8.3a0.409,0.409,0,0,0,.409.408h3.409a0.409,0.409,0,0,0,.409-0.408v-8.3h3.055a0.408,0.408,0,0,0,.409-0.408V203.6a0.409,0.409,0,0,0-.409-0.408H46.831v-1.924c0-.925.221-1.395,1.427-1.395h1.751a0.408,0.408,0,0,0,.408-0.408V196.41A0.409,0.409,0,0,0,50.009,196Z"/>
</svg>
