<svg id="Cirilyc" xmlns="http://www.w3.org/2000/svg" width="200" height="70" viewBox="0 0 200 70">
  <defs>
    <style>
      .cls-1 {
        fill: #00778a;
      }

      .cls-1, .cls-2 {
        fill-rule: evenodd;
      }

      .cls-2 {
        fill: #9c9e9f;
      }
    </style>
  </defs>
  <path id="Color_Fill_1" data-name="Color Fill 1" class="cls-1" d="M34.321,24.82Q33.5,23.6,32.668,22.381C29.7,21.691,19.056,19.9.6,24.232v8.456C11.321,27.358,26.059,24.6,34.321,24.82ZM46.509,42.989V37.935A22.47,22.47,0,0,1,44.285,39.5l0.357,0.508a31.321,31.321,0,0,0-7.256,6.753h5.349Q46.507,46.763,46.509,42.989ZM4.37,46.763h3C21.324,36.428,33.646,31.97,38.4,30.829c-0.391-.577-0.784-1.155-1.184-1.746a26.115,26.115,0,0,0,7.107-2.939c0.8-.46,1.523-0.907,2.191-1.341V21.038a25.723,25.723,0,0,1-4.41,2.536A30.3,30.3,0,0,1,35.111,25.9l1.117,1.667-0.279.011C24.305,28.947,11.25,35.3.6,41.435v1.554Q0.6,46.764,4.37,46.763Zm26.279-27.4L32.357,21.9a21.51,21.51,0,0,0,7.933-1.5,36.762,36.762,0,0,0,6.218-3.024V4.631q0-3.776-3.774-3.775H4.37Q0.6,0.857.6,4.631V17.606C10.733,15.164,21.026,16.271,30.649,19.366ZM36.867,4.64a5.959,5.959,0,1,1-5.96,5.959A5.959,5.959,0,0,1,36.867,4.64Zm4.879,33.038a0.006,0.006,0,0,1,0,0l0.562-.3,0.088-.046,0.172-.09,0.123-.065c-0.246-.366-0.494-0.732-0.752-1.112a37.5,37.5,0,0,0,4.573-2.836V29.159a46.355,46.355,0,0,1-6.088,3.765l0,0-0.093.043c-0.122.062-.249,0.124-0.36,0.178,0,0,0,0,0-.005l-0.007,0,0.309,0.461C31.524,36.9,25.877,41,18.91,46.763h9.379A73.161,73.161,0,0,1,41.746,37.678ZM179.424,60.563v4.6a2.89,2.89,0,0,1-.46,2.069,1.127,1.127,0,0,1-.786.3,1.639,1.639,0,0,1-.448-0.069v0.809a2.316,2.316,0,0,0,.484.069,2.117,2.117,0,0,0,1.379-.462,2.9,2.9,0,0,0,.726-2.37V61.372h3.122v6.9h0.9v-7.71h-4.912ZM151.366,63.7h-4.138V60.563h-0.894v7.71h0.894V64.5h4.138v3.769h0.9v-7.71h-0.9V63.7ZM26.94,60.39a4.438,4.438,0,0,0-3.158,1.133,4.208,4.208,0,0,0-1.246,2.925,3.853,3.853,0,0,0,1.258,2.867,4.554,4.554,0,0,0,3.146,1.133,4.419,4.419,0,0,0,3.121-1.133,3.974,3.974,0,0,0,0-5.8A4.426,4.426,0,0,0,26.94,60.39Zm1.766,5.757a2.5,2.5,0,0,1-1.791.659,2.435,2.435,0,0,1-1.73-.636,2.249,2.249,0,0,1-.738-1.734,2.31,2.31,0,0,1,.714-1.746,2.54,2.54,0,0,1,1.766-.659,2.656,2.656,0,0,1,1.779.659,2.375,2.375,0,0,1,.7,1.734A2.259,2.259,0,0,1,28.707,66.146ZM10.589,60.39a3.029,3.029,0,0,0-2.142.8,5.074,5.074,0,0,0,0,6.462,3.028,3.028,0,0,0,2.142.8,3.074,3.074,0,0,0,2.165-.8,5.075,5.075,0,0,0,0-6.462A3.076,3.076,0,0,0,10.589,60.39Zm0.762,6.242a1.117,1.117,0,0,1-1.5,0,3.285,3.285,0,0,1-.677-2.219A3.25,3.25,0,0,1,9.851,62.2a1.117,1.117,0,0,1,1.5,0,3.25,3.25,0,0,1,.678,2.208A3.283,3.283,0,0,1,11.351,66.632Zm6.586,1.642H19.8V62.065h2.662v-1.5H17.937v7.71Zm152.071,0H171l0.968-2.173H175.4l0.943,2.173h0.993l-3.618-8.08Zm2.311-2.983L173.7,62.2l1.355,3.086h-2.734ZM140.5,68.273h4.186V67.464H141.4V64.47h3.194V63.661H141.4V61.372h3.291V60.563H140.5v7.71Zm19.725-7.71h-0.894v6.9h-4.09v-6.9h-0.9v7.71H160.3v1.618h0.847V67.464h-0.92v-6.9ZM4.234,66a10.131,10.131,0,0,0,1.294-1.329,2.667,2.667,0,0,0,.605-1.7,2.519,2.519,0,0,0-.75-1.849A2.946,2.946,0,0,0,3.29,60.39a3,3,0,0,0-2.226.8,3.234,3.234,0,0,0-.835,1.931H2.092a1.521,1.521,0,0,1,.339-0.948,0.973,0.973,0,0,1,.738-0.278,1.132,1.132,0,0,1,.738.22,1.058,1.058,0,0,1,.315.763,2.526,2.526,0,0,1-.484,1.306,17.942,17.942,0,0,1-1.319,1.572L0,68.273h6.17v-1.5H3.387Zm159.019-5.433h-0.895V68.62l5.614-6.231v5.884h0.895V60.239l-5.614,6.231V60.563ZM60.8,65.6v-5.04H58.932v7.8h1.646l3.738-5.144v5.052h1.863v-7.8H64.534Zm27.159-5.04H83.042V64.4a5.247,5.247,0,0,1-.29,2.023,1.461,1.461,0,0,1-1.282,1.04v2.427h0.847V68.273h5.71v1.618h0.847V67.464H87.954v-6.9Zm-0.9,6.9H83.03a2.482,2.482,0,0,0,.617-0.913,5.678,5.678,0,0,0,.29-2.15V61.372h3.121v6.092Zm3.028,0.809h4.186V67.464H90.982V64.47h3.194V63.661H90.982V61.372h3.291V60.563H90.087v7.71Zm39.663-7.838a3.993,3.993,0,1,0,4.2,3.988A4.032,4.032,0,0,0,129.75,60.436Zm0,7.167a3.18,3.18,0,1,1,3.279-3.179A3.218,3.218,0,0,1,129.75,67.6ZM106.9,64.447a3.992,3.992,0,0,0,4.174,3.965,4.34,4.34,0,0,0,2.432-.751V66.6a3.673,3.673,0,0,1-.932.647,3.471,3.471,0,0,1-1.5.358,3.18,3.18,0,1,1-.012-6.358,3.563,3.563,0,0,1,1.391.3,3.983,3.983,0,0,1,1.053.717V61.2a3.927,3.927,0,0,0-2.383-.763A4.015,4.015,0,0,0,106.9,64.447ZM96.817,60.563h-0.9V68.62l5.614-6.231v5.884h0.9V60.239L96.817,66.47V60.563ZM43.063,65.6v-5.04H41.2v7.8h1.646l3.738-5.144v5.052h1.863v-7.8H46.8Zm-3.778-5.04H33.5v3.26a3.36,3.36,0,0,1-.689,2.543,1.823,1.823,0,0,1-.907.428v3.214h1.67V68.273h4.948v1.734h1.67V66.794H39.285V60.563Zm-1.839,6.231H34.409a2.765,2.765,0,0,0,.726-1.225,7.957,7.957,0,0,0,.157-1.8V62.043h2.154v4.751Zm37.2-6.231h-0.9V68.62l5.613-6.231v5.884h0.9V60.239L74.642,66.47V60.563Zm59.83,0.809h1.96v6.9h0.9v-6.9h1.96V60.563h-4.816v0.809Zm-16.5,6.9h0.894v-6.9h4.138v6.9h0.9v-7.71h-5.928v7.71ZM55.3,63.5H52.081V60.563H50.218v7.71h1.863V65H55.3v3.271h1.863v-7.71H55.3V63.5Z"/>
  <path id="Color_Fill_3" data-name="Color Fill 3" class="cls-2" d="M53.643,10.8a1.879,1.879,0,0,0,1.235.379h2.551a3.243,3.243,0,0,0,2.355-.8,2.976,2.976,0,0,0,.827-2.244A2.93,2.93,0,0,0,59.7,5.793,4.383,4.383,0,0,0,56.826,5H54.471V2.636a0.8,0.8,0,0,1,.136-0.571,0.759,0.759,0,0,1,.564-0.141h4.457a0.546,0.546,0,0,0,.449-0.205,0.562,0.562,0,0,0,.14-0.421A0.61,0.61,0,0,0,60.029.856,0.66,0.66,0,0,0,59.572.685H54.807a1.654,1.654,0,0,0-1.176.431,1.572,1.572,0,0,0-.478,1.192V9.7A1.341,1.341,0,0,0,53.643,10.8Zm0.829-4.562h2.48a2.656,2.656,0,0,1,1.761.5,1.755,1.755,0,0,1,.551,1.421A1.592,1.592,0,0,1,58.7,9.479a2.453,2.453,0,0,1-1.568.475H55.228A0.962,0.962,0,0,1,54.622,9.8a0.459,0.459,0,0,1-.151-0.389V6.238ZM64.049,1.98a0.2,0.2,0,0,1,.061.186V9.812a1.463,1.463,0,0,0,.3.943,1.137,1.137,0,0,0,.929.41h3.1a2.933,2.933,0,0,0,2.251-.854,3.871,3.871,0,0,0,.846-2.72,3.245,3.245,0,0,0-.941-2.46,3.658,3.658,0,0,0-2.591-.886H65.428V1.91a1.318,1.318,0,0,0-.264-0.86,1.029,1.029,0,0,0-.83-0.365H62.2a0.569,0.569,0,0,0-.631.6,0.622,0.622,0,0,0,.151.465,0.6,0.6,0,0,0,.452.169h1.472A0.882,0.882,0,0,1,64.049,1.98Zm1.378,3.5h2.579A2.263,2.263,0,0,1,69.631,6a2.224,2.224,0,0,1,.561,1.658,2.6,2.6,0,0,1-.467,1.663,1.787,1.787,0,0,1-1.481.6H65.89A0.628,0.628,0,0,1,65.5,9.837a0.43,0.43,0,0,1-.075-0.281V5.484Zm7.227,5.938a2.124,2.124,0,0,0,2.092-1.23,7.807,7.807,0,0,0,.371-2.9V2.607a0.776,0.776,0,0,1,.159-0.525,0.445,0.445,0,0,1,.374-0.159h3.321a0.374,0.374,0,0,1,.347.143,0.894,0.894,0,0,1,.115.5v8.159a0.751,0.751,0,0,0,.2.526,0.661,0.661,0,0,0,.457.171,0.615,0.615,0,0,0,.445-0.187,0.673,0.673,0,0,0,.214-0.51V2.365a1.756,1.756,0,0,0-.42-1.318A1.675,1.675,0,0,0,79.125.685H75.664a1.613,1.613,0,0,0-1.277.477,2.172,2.172,0,0,0-.405,1.431V7.221a8.674,8.674,0,0,1-.2,2.318,1.144,1.144,0,0,1-1.218.843,0.466,0.466,0,0,0-.5.534A0.538,0.538,0,0,0,72.655,11.421Zm10.94,0.014a0.679,0.679,0,0,0,.434-0.149,0.594,0.594,0,0,0,.225-0.478V2.593a0.928,0.928,0,0,1,.117-0.51,0.414,0.414,0,0,1,.345-0.159h4.961A0.559,0.559,0,0,0,90.266,1.3,0.552,0.552,0,0,0,89.677.685H84.506a1.512,1.512,0,0,0-1.194.493,1.821,1.821,0,0,0-.376,1.2v8.4a0.628,0.628,0,0,0,.2.484A0.661,0.661,0,0,0,83.595,11.435Zm13.416-.513a0.84,0.84,0,0,0,.375.439,0.689,0.689,0,0,0,.494.02,0.616,0.616,0,0,0,.37-0.334,0.769,0.769,0,0,0,.019-0.576L94.8,1.279A1.259,1.259,0,0,0,94.381.672a0.986,0.986,0,0,0-1.192,0,1.236,1.236,0,0,0-.411.6L89.32,10.461a0.684,0.684,0,0,0-.009.592,0.656,0.656,0,0,0,.381.342,0.628,0.628,0,0,0,.2.035,0.609,0.609,0,0,0,.3-0.079,0.815,0.815,0,0,0,.368-0.431l1.178-3.073H95.82ZM92.175,6.609l1.616-4.387,1.593,4.387H92.175Zm14.182-.727a3.006,3.006,0,0,0,.79-2.121A2.96,2.96,0,0,0,104.036.685h-2.789a1.472,1.472,0,0,0-1.18.507,1.642,1.642,0,0,0-.376,1.088v8.458a0.7,0.7,0,0,0,.2.512,0.662,0.662,0,0,0,.457.171,0.648,0.648,0,0,0,.445-0.173,0.675,0.675,0,0,0,.214-0.511V6.808h3.027A3.038,3.038,0,0,0,106.357,5.882Zm-5.348-.313V2.351a0.5,0.5,0,0,1,.085-0.307,0.363,0.363,0,0,1,.307-0.12h2.523a1.84,1.84,0,0,1,1.42.555,1.792,1.792,0,0,1,.472,1.282,1.775,1.775,0,0,1-.471,1.267,1.838,1.838,0,0,1-1.421.541h-2.915Zm12.361,5.852a4.474,4.474,0,0,0,3.736-1.738,5.887,5.887,0,0,0,1.169-3.715,5.991,5.991,0,0,0-1.169-3.757,4.9,4.9,0,0,0-7.487,0,6.057,6.057,0,0,0-1.14,3.756,5.944,5.944,0,0,0,1.141,3.714A4.463,4.463,0,0,0,113.37,11.421ZM110.636,3a3.545,3.545,0,0,1,5.47,0,4.878,4.878,0,0,1,.852,2.967,4.766,4.766,0,0,1-.852,2.924,3.545,3.545,0,0,1-5.471,0,4.822,4.822,0,0,1-.838-2.925A4.9,4.9,0,0,1,110.636,3ZM57.668,18.776a1.247,1.247,0,0,0-.416-0.607,0.983,0.983,0,0,0-1.192,0,1.236,1.236,0,0,0-.411.6l-3.458,9.188a0.684,0.684,0,0,0-.009.592,0.657,0.657,0,0,0,.383.342,0.636,0.636,0,0,0,.2.034,0.606,0.606,0,0,0,.3-0.078,0.813,0.813,0,0,0,.369-0.431l1.178-3.073h4.08l1.192,3.075a0.84,0.84,0,0,0,.374.439,0.684,0.684,0,0,0,.494.02,0.609,0.609,0,0,0,.37-0.334,0.766,0.766,0,0,0,.02-0.576Zm-2.622,5.329,1.617-4.387,1.592,4.387H55.047Zm17.068,4.129V18.88a0.871,0.871,0,0,0-.262-0.66,0.828,0.828,0,0,0-.554-0.25,0.972,0.972,0,0,0-.629.139,1.017,1.017,0,0,0-.391.537L67.406,26.71l-2.868-8.053a0.954,0.954,0,0,0-.408-0.557,1.023,1.023,0,0,0-.541-0.148l-0.075,0a0.917,0.917,0,0,0-.569.265,0.907,0.907,0,0,0-.247.659v9.355a0.693,0.693,0,0,0,.2.512,0.679,0.679,0,0,0,.9,0,0.671,0.671,0,0,0,.215-0.511V20.961l2.569,7.293a0.843,0.843,0,0,0,1.65-.014L70.8,20.961v7.273a0.693,0.693,0,0,0,.2.512,0.67,0.67,0,0,0,.457.171,0.645,0.645,0,0,0,.444-0.172A0.67,0.67,0,0,0,72.114,28.234Zm2.5-9.546a1.642,1.642,0,0,0-.376,1.088v7.3a1.582,1.582,0,0,0,.377,1.075,1.473,1.473,0,0,0,1.178.506h5.143a0.667,0.667,0,0,0,.495-0.195,0.6,0.6,0,0,0,.178-0.432,0.614,0.614,0,0,0-.188-0.441,0.7,0.7,0,0,0-.485-0.171H75.953a0.359,0.359,0,0,1-.3-0.117,0.425,0.425,0,0,1-.088-0.281v-3.09h4.863a0.666,0.666,0,0,0,.495-0.195,0.6,0.6,0,0,0,.178-0.432,0.615,0.615,0,0,0-.188-0.441,0.7,0.7,0,0,0-.485-0.171H75.56V19.848a0.5,0.5,0,0,1,.086-0.307,0.362,0.362,0,0,1,.307-0.12h4.961a0.657,0.657,0,0,0,.481-0.195,0.6,0.6,0,0,0,.178-0.432,0.614,0.614,0,0,0-.188-0.441,0.68,0.68,0,0,0-.471-0.171H75.8A1.474,1.474,0,0,0,74.619,18.689Zm8.7,1.088v8.458a0.693,0.693,0,0,0,.2.512,0.66,0.66,0,0,0,.457.171,0.645,0.645,0,0,0,.444-0.172,0.67,0.67,0,0,0,.215-0.511V24.3h3.027a3.04,3.04,0,0,0,2.321-.925,3.07,3.07,0,0,0-2.321-5.2H84.874a1.475,1.475,0,0,0-1.18.507A1.647,1.647,0,0,0,83.318,19.777Zm1.317,0.071a0.5,0.5,0,0,1,.086-0.307,0.362,0.362,0,0,1,.307-0.12H87.55a1.842,1.842,0,0,1,1.421.555,1.789,1.789,0,0,1,.471,1.281,1.767,1.767,0,0,1-.471,1.267,1.836,1.836,0,0,1-1.421.541H84.635V19.848Zm8.512,9.072,0.062,0a0.713,0.713,0,0,0,.425-0.186,0.672,0.672,0,0,0,.215-0.511V27.547l5.171-6.394v7.109a0.682,0.682,0,0,0,.214.508,0.7,0.7,0,0,0,.9-0.034,0.71,0.71,0,0,0,.206-0.517V18.709a0.765,0.765,0,0,0-.206-0.56,0.644,0.644,0,0,0-.929.009,0.8,0.8,0,0,0-.183.551v0.5l-5.171,6.368v-6.87a0.747,0.747,0,0,0-.206-0.546,0.647,0.647,0,0,0-.92,0,0.747,0.747,0,0,0-.192.546v9.6a0.621,0.621,0,0,0,.213.479A0.637,0.637,0,0,0,93.148,28.92Zm0-.233h0v0Zm13.265-6.092,3.243-3.447a0.82,0.82,0,0,0,.186-0.514,0.582,0.582,0,0,0-.215-0.423,0.617,0.617,0,0,0-.436-0.157,0.734,0.734,0,0,0-.5.24l-4.674,4.894V18.609a0.624,0.624,0,0,0-.228-0.508,0.7,0.7,0,0,0-.889.025,0.645,0.645,0,0,0-.2.5v9.611a0.7,0.7,0,0,0,.2.512,0.67,0.67,0,0,0,.457.171,0.613,0.613,0,0,0,.444-0.186,0.669,0.669,0,0,0,.215-0.511V24.942l1.438-1.424L109.5,28.6a0.661,0.661,0,0,0,.459.3,0.705,0.705,0,0,0,.478-0.09,0.608,0.608,0,0,0,.284-0.412,0.745,0.745,0,0,0-.145-0.549Zm10.731-3.818a1.24,1.24,0,0,0-.416-0.607,0.983,0.983,0,0,0-1.192,0,1.25,1.25,0,0,0-.411.6l-3.458,9.189a0.684,0.684,0,0,0-.008.591,0.656,0.656,0,0,0,.382.342,0.64,0.64,0,0,0,.2.034,0.611,0.611,0,0,0,.3-0.078,0.816,0.816,0,0,0,.368-0.431l1.178-3.073h4.08l1.192,3.075a0.839,0.839,0,0,0,.375.439,0.681,0.681,0,0,0,.494.02,0.61,0.61,0,0,0,.369-0.334,0.762,0.762,0,0,0,.02-0.576Zm-2.621,5.329,1.616-4.387,1.593,4.387h-3.209Zm14.631-5.97a0.71,0.71,0,0,0-.192.517v3.759h-5.606V18.652a0.69,0.69,0,0,0-.215-0.526,0.671,0.671,0,0,0-.91.009,0.71,0.71,0,0,0-.192.517v9.583a0.7,0.7,0,0,0,.2.512,0.666,0.666,0,0,0,1.116-.512V23.65h5.606v4.585a0.7,0.7,0,0,0,.2.512,0.661,0.661,0,0,0,.457.171,0.647,0.647,0,0,0,.445-0.173,0.673,0.673,0,0,0,.213-0.511V18.652a0.69,0.69,0,0,0-.215-0.526A0.671,0.671,0,0,0,129.154,18.135Zm10.627,9.791a4.142,4.142,0,0,0,1.31-2.105,0.766,0.766,0,0,0-.086-0.6,0.67,0.67,0,0,0-.434-0.3,0.68,0.68,0,0,0-.493.064,0.607,0.607,0,0,0-.32.472,2.762,2.762,0,0,1-1.088,1.692,3.192,3.192,0,0,1-1.876.514,3.043,3.043,0,0,1-2.426-1.02,4.836,4.836,0,0,1-.98-3.265,4.622,4.622,0,0,1,.98-3.1,3.051,3.051,0,0,1,2.426-1.077,3.426,3.426,0,0,1,1.895.476,2.385,2.385,0,0,1,1.022,1.612,0.747,0.747,0,0,0,.3.519,0.59,0.59,0,0,0,.487.093,0.649,0.649,0,0,0,.417-0.3,0.761,0.761,0,0,0,.118-0.54,3.658,3.658,0,0,0-1.243-2.184,4.627,4.627,0,0,0-3-.918,4.309,4.309,0,0,0-3.406,1.544,5.71,5.71,0,0,0-1.317,3.867,6.021,6.021,0,0,0,1.274,4.052,4.341,4.341,0,0,0,3.449,1.473A4.447,4.447,0,0,0,139.781,27.926ZM149.6,28.6a0.65,0.65,0,0,0,.46.3,0.706,0.706,0,0,0,.48-0.09,0.616,0.616,0,0,0,.282-0.415,0.746,0.746,0,0,0-.145-0.546l-4.165-5.255,3.243-3.448a0.824,0.824,0,0,0,.186-0.516,0.6,0.6,0,0,0-.215-0.42,0.617,0.617,0,0,0-.436-0.157,0.634,0.634,0,0,0-.5.24l-4.674,4.894V18.609a0.629,0.629,0,0,0-.228-0.508,0.7,0.7,0,0,0-.889.025,0.645,0.645,0,0,0-.2.5v9.611a0.7,0.7,0,0,0,.2.512,0.661,0.661,0,0,0,.457.171,0.615,0.615,0,0,0,.445-0.187,0.672,0.672,0,0,0,.214-0.51V24.942l1.438-1.424Zm9.858-.183a0.839,0.839,0,0,0,.375.439,0.681,0.681,0,0,0,.494.02,0.61,0.61,0,0,0,.369-0.334,0.765,0.765,0,0,0,.02-0.576l-3.473-9.192a1.255,1.255,0,0,0-.416-0.607,0.984,0.984,0,0,0-1.191,0,1.226,1.226,0,0,0-.411.6l-3.458,9.187a0.679,0.679,0,0,0-.009.593,0.656,0.656,0,0,0,.382.342,0.64,0.64,0,0,0,.2.034,0.613,0.613,0,0,0,.3-0.079,0.816,0.816,0,0,0,.368-0.431l1.178-3.073h4.081Zm-4.836-4.313,1.616-4.387,1.593,4.387h-3.209ZM56.858,40.09L60.1,36.643a0.822,0.822,0,0,0,.186-0.515,0.6,0.6,0,0,0-.216-0.422,0.621,0.621,0,0,0-.435-0.156,0.653,0.653,0,0,0-.5.24l-4.674,4.894V36.1A0.625,0.625,0,0,0,54.23,35.6a0.7,0.7,0,0,0-.889.025,0.643,0.643,0,0,0-.2.5V45.73a0.694,0.694,0,0,0,.2.511,0.66,0.66,0,0,0,.458.172,0.615,0.615,0,0,0,.444-0.186,0.67,0.67,0,0,0,.215-0.511V42.438l1.438-1.424L59.946,46.1a0.649,0.649,0,0,0,.457.3,0.694,0.694,0,0,0,.48-0.089,0.607,0.607,0,0,0,.284-0.415,0.749,0.749,0,0,0-.145-0.547ZM66.9,35.678H64.11a1.475,1.475,0,0,0-1.179.507,1.642,1.642,0,0,0-.376,1.088V45.73a0.694,0.694,0,0,0,.2.511,0.66,0.66,0,0,0,.458.172,0.644,0.644,0,0,0,.445-0.173,0.675,0.675,0,0,0,.214-0.511V41.8H66.9a3.039,3.039,0,0,0,2.321-.925A3.07,3.07,0,0,0,66.9,35.678Zm1.309,4.342a1.837,1.837,0,0,1-1.421.541H63.872V37.344a0.506,0.506,0,0,1,.085-0.307,0.364,0.364,0,0,1,.307-0.121h2.523a1.843,1.843,0,0,1,1.421.555,1.79,1.79,0,0,1,.471,1.282A1.767,1.767,0,0,1,68.208,40.02Zm10.165,4.9H73.384a0.359,0.359,0,0,1-.3-0.117,0.426,0.426,0,0,1-.088-0.281V41.43h4.863a0.666,0.666,0,0,0,.494-0.194,0.6,0.6,0,0,0,.179-0.432,0.615,0.615,0,0,0-.189-0.442,0.7,0.7,0,0,0-.484-0.17H72.992V37.344a0.507,0.507,0,0,1,.085-0.307,0.365,0.365,0,0,1,.307-0.121h4.961a0.656,0.656,0,0,0,.48-0.194A0.6,0.6,0,0,0,79,36.29a0.615,0.615,0,0,0-.189-0.442,0.692,0.692,0,0,0-.47-0.17H73.23a1.474,1.474,0,0,0-1.179.507,1.642,1.642,0,0,0-.376,1.088v7.3a1.578,1.578,0,0,0,.377,1.075,1.473,1.473,0,0,0,1.178.506h5.143a0.666,0.666,0,0,0,.494-0.194,0.6,0.6,0,0,0,.179-0.432,0.615,0.615,0,0,0-.189-0.442A0.7,0.7,0,0,0,78.374,44.919Zm12.638,1.2a0.884,0.884,0,0,0-.076-0.451,0.527,0.527,0,0,0-.486-0.3,1.021,1.021,0,0,1-.6-0.249,0.744,0.744,0,0,1-.214-0.55v-7.39a1.539,1.539,0,0,0-.356-1.111,1.513,1.513,0,0,0-1.143-.384h-3.2a1.178,1.178,0,0,0-1.359,1.367A15.122,15.122,0,0,1,83,41.168a9.269,9.269,0,0,1-1.86,3.7l-0.312.259a1.318,1.318,0,0,0-.285.313,1.055,1.055,0,0,0-.116.535l-0.056,1.561a0.516,0.516,0,0,0,.5.613,0.581,0.581,0,0,0,.546-0.48,3.513,3.513,0,0,1,.52-1.172,0.73,0.73,0,0,1,.54-0.342H88.39a1.573,1.573,0,0,1,1.008.419,2.516,2.516,0,0,1,.781,1.171,0.492,0.492,0,0,0,.461.431,0.419,0.419,0,0,0,.126-0.019,0.555,0.555,0,0,0,.369-0.712l-0.1-1.149Zm-2.691-1.4a0.264,0.264,0,0,1-.033.172,0.785,0.785,0,0,1-.275.027H82.757c-0.069,0-.12,0-0.155-0.006a1.455,1.455,0,0,1,.113-0.174,10.426,10.426,0,0,0,1.392-3.172,14.424,14.424,0,0,0,.626-4.066,1.208,1.208,0,0,1,.057-0.518,0.31,0.31,0,0,1,.251-0.066H88a0.455,0.455,0,0,1,.257.056,0.342,0.342,0,0,1,.066.243v7.5Zm10.913-9.065a0.805,0.805,0,0,0-.183.55v0.5l-5.171,6.368V36.2a0.751,0.751,0,0,0-.206-0.545,0.646,0.646,0,0,0-.92,0,0.747,0.747,0,0,0-.192.545v9.6a0.616,0.616,0,0,0,.212.478,0.627,0.627,0,0,0,.4.136l0.063,0a0.7,0.7,0,0,0,.427-0.186,0.672,0.672,0,0,0,.215-0.511V45.043l5.171-6.394v7.11a0.682,0.682,0,0,0,.212.507,0.7,0.7,0,0,0,.9-0.032,0.718,0.718,0,0,0,.206-0.518V36.2a0.773,0.773,0,0,0-.2-0.56A0.642,0.642,0,0,0,99.233,35.655ZM93.175,46.188V46.182h0v0.005Zm15.9-10.51h-6.685a0.54,0.54,0,0,0-.56.612,0.547,0.547,0,0,0,.56.627h2.747v8.828a0.677,0.677,0,0,0,.2.5,0.657,0.657,0,0,0,.458.172,0.643,0.643,0,0,0,.445-0.173,0.657,0.657,0,0,0,.213-0.5V36.917h2.621a0.654,0.654,0,0,0,.484-0.185,0.582,0.582,0,0,0,0-.884A0.7,0.7,0,0,0,109.072,35.678Zm9.145-.047a0.71,0.71,0,0,0-.191.517v3.759H112.42V36.148a0.691,0.691,0,0,0-.217-0.527,0.674,0.674,0,0,0-.909.01,0.71,0.71,0,0,0-.191.517V45.73a0.694,0.694,0,0,0,.2.511,0.666,0.666,0,0,0,1.117-.511V41.145h5.606V45.73a0.694,0.694,0,0,0,.2.511,0.659,0.659,0,0,0,.458.172,0.643,0.643,0,0,0,.445-0.173,0.675,0.675,0,0,0,.214-0.511V36.148a0.694,0.694,0,0,0-.216-0.527A0.675,0.675,0,0,0,118.217,35.631Zm8.02,0.642a1.244,1.244,0,0,0-.417-0.608,0.982,0.982,0,0,0-1.19,0,1.237,1.237,0,0,0-.412.6l-3.458,9.188a0.686,0.686,0,0,0-.009.592,0.654,0.654,0,0,0,.381.342,0.637,0.637,0,0,0,.2.035,0.606,0.606,0,0,0,.3-0.078,0.81,0.81,0,0,0,.37-0.431l1.177-3.073h4.081l1.191,3.075a0.837,0.837,0,0,0,.374.439,0.686,0.686,0,0,0,.494.02,0.6,0.6,0,0,0,.371-0.334,0.766,0.766,0,0,0,.02-0.576ZM123.616,41.6l1.616-4.387,1.593,4.387h-3.209Zm16.129-1.609h-2.354V37.628a0.805,0.805,0,0,1,.136-0.571,0.76,0.76,0,0,1,.565-0.141h4.456a0.546,0.546,0,0,0,.448-0.2,0.557,0.557,0,0,0,.141-0.422,0.617,0.617,0,0,0-.189-0.442,0.667,0.667,0,0,0-.456-0.17h-4.765a1.659,1.659,0,0,0-1.176.431,1.575,1.575,0,0,0-.477,1.192v7.39a1.34,1.34,0,0,0,.487,1.1,1.879,1.879,0,0,0,1.236.38h2.551a3.239,3.239,0,0,0,2.354-.8,2.976,2.976,0,0,0,.827-2.244,2.933,2.933,0,0,0-.907-2.339A4.387,4.387,0,0,0,139.745,39.992Zm1.876,4.48a2.444,2.444,0,0,1-1.567.475h-1.906a0.955,0.955,0,0,1-.607-0.153,0.458,0.458,0,0,1-.15-0.388V41.231h2.48a2.657,2.657,0,0,1,1.762.5,1.759,1.759,0,0,1,.551,1.421A1.587,1.587,0,0,1,141.621,44.472Zm8.3-8.2a1.244,1.244,0,0,0-.417-0.608,0.981,0.981,0,0,0-1.191,0,1.254,1.254,0,0,0-.411.6l-3.458,9.19a0.69,0.69,0,0,0-.009.59,0.654,0.654,0,0,0,.381.342,0.639,0.639,0,0,0,.205.035,0.6,0.6,0,0,0,.295-0.078,0.81,0.81,0,0,0,.37-0.431l1.177-3.073h4.081l1.191,3.075a0.837,0.837,0,0,0,.374.439,0.686,0.686,0,0,0,.494.02,0.6,0.6,0,0,0,.371-0.334,0.767,0.767,0,0,0,.02-0.576ZM147.3,41.6l1.616-4.387,1.593,4.387H147.3Zm14.631-5.971a0.71,0.71,0,0,0-.192.517v3.759h-5.606V36.148a0.694,0.694,0,0,0-.216-0.527,0.674,0.674,0,0,0-.909.01,0.71,0.71,0,0,0-.192.517V45.73a0.7,0.7,0,0,0,.2.511,0.666,0.666,0,0,0,1.117-.511V41.145h5.606V45.73a0.7,0.7,0,0,0,.2.511,0.66,0.66,0,0,0,.458.172,0.641,0.641,0,0,0,.445-0.173,0.671,0.671,0,0,0,.214-0.511V36.148a0.691,0.691,0,0,0-.216-0.527A0.674,0.674,0,0,0,161.934,35.631Zm7.076,4.46,3.243-3.447a0.82,0.82,0,0,0,.186-0.513,0.592,0.592,0,0,0-.215-0.424,0.623,0.623,0,0,0-.436-0.156,0.685,0.685,0,0,0-.5.24l-4.674,4.894V36.1a0.624,0.624,0,0,0-.228-0.508,0.705,0.705,0,0,0-.889.025,0.645,0.645,0,0,0-.2.5V45.73a0.7,0.7,0,0,0,.2.511,0.66,0.66,0,0,0,.458.172,0.613,0.613,0,0,0,.444-0.186,0.669,0.669,0,0,0,.215-0.511V42.438l1.438-1.424L172.1,46.1a0.657,0.657,0,0,0,.458.3,0.7,0.7,0,0,0,.479-0.089,0.605,0.605,0,0,0,.284-0.413,0.747,0.747,0,0,0-.145-0.549Zm14.205,5.373-3.472-9.191a1.257,1.257,0,0,0-.417-0.608,0.983,0.983,0,0,0-1.191,0,1.235,1.235,0,0,0-.411.6l-3.459,9.188a0.686,0.686,0,0,0-.008.592,0.648,0.648,0,0,0,.381.342,0.628,0.628,0,0,0,.2.035,0.6,0.6,0,0,0,.295-0.078,0.812,0.812,0,0,0,.371-0.431l1.177-3.073h4.081l1.191,3.075a0.831,0.831,0,0,0,.373.439,0.686,0.686,0,0,0,.494.02,0.6,0.6,0,0,0,.371-0.334A0.761,0.761,0,0,0,183.215,45.463ZM177.121,41.6l1.616-4.387L180.33,41.6h-3.209Z"/>
</svg>
