<svg xmlns="http://www.w3.org/2000/svg" xmlns:xlink="http://www.w3.org/1999/xlink" preserveAspectRatio="xMidYMid" width="194" height="27" viewBox="0 0 194 27">
  <defs>
    <style>
      .cls-1 {
        fill: #d6ab4d;
      }

      .cls-1, .cls-2 {
        fill-rule: evenodd;
      }

      .cls-2 {
        fill: #808285;
      }
    </style>
  </defs>
  <path d="M2.734,26.906 L16.558,26.906 C10.352,24.734 5.018,21.038 2.094,18.479 L0.279,22.878 C-0.099,23.794 -0.135,24.736 0.381,25.582 C0.897,26.428 1.746,26.906 2.734,26.906 L2.734,26.906 ZM3.782,14.386 C9.473,21.826 17.001,23.419 19.254,24.410 L18.064,26.135 C18.420,26.410 18.774,26.666 19.125,26.906 L25.815,26.906 C23.966,25.632 22.069,24.438 20.161,23.316 C20.417,22.973 21.293,21.829 21.560,21.473 C15.582,19.003 8.154,15.122 5.703,9.729 L3.782,14.386 L3.782,14.386 ZM8.157,3.778 C7.832,9.576 19.049,17.591 24.163,18.571 L22.919,20.039 C27.576,22.065 31.279,24.293 34.776,26.906 L43.933,26.906 C35.282,21.277 28.165,18.405 24.858,17.433 C25.263,16.892 26.036,15.781 26.450,15.228 C19.506,13.937 13.212,8.007 11.385,1.104 L11.094,1.104 C10.033,1.104 9.045,1.626 8.639,2.610 L8.157,3.778 L8.157,3.778 ZM30.795,9.516 C33.472,9.029 42.500,7.949 57.718,11.763 L53.943,2.610 C53.537,1.626 52.549,1.104 51.487,1.104 L16.129,1.104 C17.911,5.930 22.949,12.441 28.399,12.608 L27.108,14.377 L27.376,14.401 C36.921,16.003 47.478,20.699 56.546,26.151 C58.256,27.178 61.012,27.532 62.201,25.582 C63.258,23.849 62.206,21.694 60.483,20.782 C50.451,15.478 36.758,11.977 29.081,11.801 L30.795,9.516 L30.795,9.516 Z" class="cls-1"/>
  <path d="M73.414,11.317 L81.218,11.317 C82.459,11.317 83.417,10.908 84.150,10.078 C84.830,9.314 85.160,8.424 85.160,7.361 C85.160,6.252 84.832,5.356 84.157,4.621 C83.441,3.802 82.482,3.407 81.218,3.407 L74.394,3.407 C73.936,3.407 73.739,3.576 73.629,3.704 C73.486,3.880 73.414,4.114 73.414,4.424 L73.414,11.317 L73.414,11.317 ZM141.689,11.317 L149.493,11.317 C150.733,11.317 151.693,10.908 152.425,10.080 C153.105,9.314 153.435,8.424 153.435,7.361 C153.435,6.252 153.108,5.356 152.432,4.621 C151.716,3.802 150.758,3.407 149.493,3.407 L142.668,3.407 C142.212,3.407 142.016,3.576 141.907,3.704 C141.761,3.879 141.689,4.114 141.689,4.424 L141.689,11.317 L141.689,11.317 ZM141.689,14.123 L141.689,22.283 C141.689,22.570 141.761,22.795 141.910,22.976 C142.016,23.100 142.214,23.268 142.668,23.268 L150.159,23.268 C151.556,23.268 152.634,22.806 153.455,21.867 C154.194,21.024 154.567,19.960 154.567,18.711 C154.567,17.442 154.183,16.405 153.396,15.536 C152.530,14.584 151.417,14.123 149.992,14.123 L141.689,14.123 L141.689,14.123 ZM150.192,26.109 L142.302,26.109 C141.139,26.109 140.208,25.714 139.540,24.940 C138.952,24.249 138.656,23.401 138.656,22.416 L138.656,4.290 C138.656,3.284 138.953,2.425 139.538,1.738 C140.209,0.958 141.140,0.568 142.302,0.568 L149.694,0.568 C151.784,0.568 153.482,1.283 154.747,2.698 C155.890,3.987 156.468,5.566 156.468,7.396 C156.469,8.588 156.190,9.674 155.637,10.613 C155.240,11.334 154.698,11.961 154.025,12.488 C154.978,13.050 155.758,13.770 156.350,14.629 C157.179,15.794 157.600,17.168 157.600,18.711 C157.600,20.697 156.978,22.400 155.746,23.778 C154.369,25.324 152.497,26.109 150.192,26.109 L150.192,26.109 ZM124.533,26.676 C121.203,26.676 118.492,25.462 116.472,23.066 C114.410,20.674 113.362,17.398 113.362,13.338 C113.362,9.362 114.408,6.112 116.474,3.674 C118.511,1.236 121.222,-0.001 124.533,-0.001 C127.479,-0.001 129.870,0.766 131.639,2.285 C133.164,3.626 134.145,5.437 134.563,7.673 C134.628,8.124 134.534,8.530 134.291,8.898 C134.054,9.236 133.734,9.445 133.327,9.539 C132.964,9.632 132.550,9.566 132.213,9.331 C131.837,9.076 131.599,8.673 131.511,8.142 C131.157,6.330 130.351,4.999 129.049,4.089 C127.874,3.260 126.356,2.840 124.533,2.840 C122.127,2.840 120.233,3.690 118.743,5.438 C117.186,7.317 116.395,9.973 116.395,13.338 C116.395,16.787 117.186,19.467 118.744,21.304 C120.192,23.007 122.085,23.834 124.533,23.834 C126.368,23.834 127.871,23.408 129.003,22.561 C130.275,21.592 131.154,20.014 131.615,17.875 C131.704,17.395 131.959,17.015 132.344,16.791 C132.706,16.590 133.093,16.540 133.498,16.637 C133.924,16.726 134.271,16.961 134.495,17.317 C134.742,17.687 134.811,18.150 134.693,18.684 C134.138,21.002 133.103,22.860 131.615,24.215 C129.846,25.850 127.462,26.676 124.533,26.676 L124.533,26.676 ZM97.627,15.256 L105.562,15.256 L101.609,4.336 L97.627,15.256 L97.627,15.256 ZM92.354,26.696 L92.340,26.696 C92.191,26.694 92.038,26.668 91.887,26.620 C91.492,26.484 91.196,26.223 91.006,25.839 C90.869,25.561 90.761,25.101 91.030,24.490 L99.241,1.888 C99.446,1.292 99.770,0.820 100.204,0.494 C100.620,0.186 101.100,0.030 101.628,0.030 C102.111,0.030 102.567,0.186 102.980,0.492 C103.415,0.818 103.739,1.292 103.950,1.895 L112.202,24.521 C112.358,24.988 112.340,25.422 112.153,25.825 C111.989,26.186 111.694,26.448 111.305,26.584 C110.915,26.713 110.537,26.693 110.165,26.540 L110.103,26.508 C109.743,26.295 109.472,25.969 109.301,25.534 L106.614,18.064 L96.607,18.064 L93.893,25.521 C93.714,25.971 93.428,26.302 93.038,26.516 C92.824,26.633 92.598,26.694 92.366,26.696 L92.354,26.696 L92.354,26.696 ZM73.414,14.123 L73.414,22.283 C73.414,22.570 73.486,22.795 73.634,22.976 C73.739,23.100 73.937,23.268 74.394,23.268 L81.883,23.268 C83.280,23.268 84.359,22.806 85.180,21.867 C85.918,21.024 86.293,19.960 86.293,18.711 C86.293,17.445 85.909,16.405 85.120,15.536 C84.255,14.584 83.142,14.123 81.717,14.123 L73.414,14.123 L73.414,14.123 ZM81.917,26.109 L74.028,26.109 C72.863,26.109 71.934,25.714 71.264,24.940 C70.677,24.249 70.380,23.401 70.380,22.416 L70.380,4.290 C70.380,3.284 70.677,2.425 71.261,1.738 C71.935,0.958 72.865,0.568 74.028,0.568 L81.417,0.568 C83.507,0.568 85.206,1.283 86.473,2.698 C87.614,3.987 88.194,5.566 88.194,7.396 C88.194,8.590 87.914,9.674 87.360,10.613 C86.965,11.334 86.424,11.961 85.749,12.486 C86.703,13.050 87.484,13.770 88.075,14.629 C88.904,15.792 89.326,17.167 89.326,18.711 C89.326,20.697 88.701,22.400 87.470,23.778 C86.092,25.324 84.224,26.109 81.917,26.109 L81.917,26.109 Z" class="cls-2"/>
  <path d="M193.925,1.763 L191.770,9.846 C191.586,10.547 191.129,10.948 190.515,10.948 C189.888,10.948 189.560,10.576 189.560,10.032 C188.904,10.647 188.261,11.005 187.406,11.005 C185.737,11.005 184.467,9.789 184.467,7.715 C184.467,4.996 186.536,3.051 188.690,3.051 C189.888,3.051 190.587,3.552 191.087,4.310 L191.842,1.434 C192.028,0.734 192.484,0.333 193.055,0.333 C193.783,0.333 194.167,0.862 193.925,1.763 ZM188.975,4.882 C187.805,4.882 186.707,6.026 186.707,7.571 C186.707,8.573 187.334,9.174 188.305,9.174 C189.503,9.174 190.616,7.972 190.616,6.512 C190.616,5.540 189.930,4.882 188.975,4.882 ZM182.720,9.846 C182.535,10.547 182.079,10.948 181.507,10.948 C180.780,10.948 180.395,10.418 180.637,9.517 L182.806,1.434 C182.992,0.734 183.448,0.333 184.019,0.333 C184.746,0.333 185.132,0.862 184.889,1.763 L182.720,9.846 ZM175.840,11.033 C173.573,11.033 172.160,9.531 172.160,7.486 C172.160,5.197 174.128,3.051 176.583,3.051 C178.850,3.051 180.263,4.553 180.263,6.599 C180.263,8.888 178.294,11.033 175.840,11.033 ZM176.482,4.911 C175.155,4.911 174.285,6.341 174.285,7.428 C174.285,8.544 174.956,9.174 175.941,9.174 C177.267,9.174 178.136,7.743 178.136,6.656 C178.136,5.540 177.466,4.911 176.482,4.911 ZM170.898,3.766 C170.583,3.766 170.370,3.652 170.213,3.537 C169.556,3.022 168.957,2.693 167.888,2.693 C165.748,2.693 164.108,4.524 164.108,6.613 C164.108,8.172 165.249,9.017 166.661,9.017 C167.431,9.017 168.002,8.830 168.443,8.630 L168.914,6.999 L167.687,6.999 C167.159,6.999 166.732,6.584 166.732,6.055 C166.732,5.526 167.159,5.097 167.687,5.097 L170.270,5.097 C170.997,5.097 171.396,5.640 171.155,6.512 L170.370,9.274 C170.228,9.789 169.985,10.146 169.485,10.418 C168.943,10.704 167.801,11.033 166.518,11.033 C164.235,11.033 161.825,9.675 161.825,6.685 C161.825,3.566 164.464,0.676 168.059,0.676 C169.728,0.676 170.940,1.234 171.540,1.792 C171.768,1.992 171.982,2.250 171.982,2.679 C171.982,3.280 171.496,3.766 170.898,3.766 Z" class="cls-1"/>
</svg>
