<svg xmlns="http://www.w3.org/2000/svg" xmlns:xlink="http://www.w3.org/1999/xlink" preserveAspectRatio="xMidYMid" width="195" height="34" viewBox="0 0 195 34">
  <defs>
    <style>
      .cls-1 {
        fill: #8cc641;
      }

      .cls-1, .cls-2, .cls-3, .cls-4 {
        fill-rule: evenodd;
      }

      .cls-2 {
        fill: #1b7d8d;
      }

      .cls-3 {
        fill: #9c9e9f;
      }

      .cls-4 {
        fill: #197a89;
      }
    </style>
  </defs>
  <path d="M26.107,18.646 C26.496,19.223 26.875,19.788 27.254,20.352 C23.679,21.216 15.667,24.052 5.936,29.998 C4.238,28.542 2.850,26.741 1.857,24.704 C9.423,21.051 17.448,18.057 24.883,17.178 L25.153,17.165 L24.070,15.537 C25.698,15.233 27.957,14.592 30.848,13.260 C31.569,12.927 32.224,12.583 32.842,12.234 L32.842,15.858 C29.987,17.499 27.681,18.279 26.107,18.646 ZM0.176,17.465 C0.176,15.522 0.528,13.665 1.141,11.935 C12.597,10.390 19.443,11.564 21.701,12.092 C22.234,12.890 22.768,13.682 23.304,14.476 C17.578,14.327 8.648,15.664 0.220,18.338 C0.205,18.047 0.176,17.759 0.176,17.465 ZM29.066,23.069 L28.767,22.618 L28.775,22.614 C28.778,22.616 28.778,22.618 28.779,22.619 C28.887,22.565 29.009,22.506 29.128,22.445 L29.218,22.402 L29.218,22.400 C30.095,21.955 31.214,21.331 32.563,20.465 C31.163,28.124 24.512,33.926 16.508,33.926 C14.837,33.926 13.225,33.670 11.707,33.200 C17.058,28.961 22.029,25.740 29.066,23.069 Z" class="cls-1"/>
  <path d="M31.225,0.600 L16.503,0.600 L16.445,0.600 L16.389,0.600 L16.370,0.600 C11.703,0.622 7.509,2.628 4.546,5.810 C9.691,6.105 14.775,7.151 19.680,8.742 L21.337,11.216 C23.258,11.226 25.973,10.949 29.030,9.747 C30.484,9.175 31.719,8.615 32.779,8.077 L32.779,2.168 C32.779,1.301 32.084,0.600 31.225,0.600 " class="cls-2"/>
  <path d="M58.071,15.905 C58.952,15.240 59.659,14.442 60.177,13.529 C60.900,12.336 61.266,10.961 61.266,9.442 C61.266,7.122 60.510,5.116 59.015,3.477 C57.361,1.683 55.138,0.772 52.408,0.772 L42.748,0.772 C41.228,0.772 40.012,1.271 39.131,2.261 C38.366,3.134 37.980,4.225 37.980,5.500 L37.980,28.515 C37.980,29.764 38.366,30.840 39.134,31.717 C40.010,32.702 41.225,33.201 42.748,33.201 L53.060,33.201 C56.077,33.201 58.519,32.206 60.321,30.241 C61.930,28.493 62.744,26.329 62.744,23.813 C62.744,21.849 62.194,20.104 61.110,18.629 C60.336,17.536 59.317,16.623 58.071,15.905 ZM41.946,5.671 C41.946,5.277 42.038,4.979 42.228,4.758 C42.371,4.595 42.628,4.379 43.225,4.379 L52.147,4.379 C53.800,4.379 55.052,4.881 55.988,5.919 C56.870,6.854 57.299,7.993 57.299,9.400 C57.299,10.750 56.868,11.880 55.979,12.850 C55.021,13.904 53.767,14.418 52.147,14.418 L41.946,14.418 L41.946,5.671 ZM57.325,27.815 C56.252,29.011 54.843,29.595 53.017,29.595 L43.225,29.595 C42.629,29.595 42.371,29.381 42.234,29.224 C42.038,28.996 41.946,28.710 41.946,28.348 L41.946,17.988 L52.800,17.988 C54.663,17.988 56.117,18.572 57.247,19.777 C58.279,20.881 58.780,22.202 58.780,23.813 C58.780,25.400 58.292,26.746 57.325,27.815 ZM81.861,2.460 C81.588,1.694 81.163,1.095 80.594,0.678 C80.052,0.292 79.458,0.094 78.827,0.094 C78.135,0.094 77.510,0.292 76.967,0.682 C76.400,1.095 75.975,1.694 75.706,2.450 L64.973,31.149 C64.622,31.926 64.762,32.506 64.943,32.861 C65.190,33.345 65.577,33.676 66.094,33.850 C66.297,33.916 66.503,33.948 66.703,33.948 C67.013,33.948 67.315,33.870 67.599,33.719 C68.107,33.447 68.482,33.028 68.716,32.457 L72.264,22.988 L85.344,22.988 L88.856,32.475 C89.082,33.023 89.434,33.438 89.906,33.708 L89.988,33.750 C90.474,33.941 90.968,33.969 91.478,33.804 C91.986,33.633 92.369,33.302 92.587,32.842 C92.828,32.332 92.852,31.779 92.649,31.186 L81.861,2.460 ZM73.596,19.420 L78.802,5.561 L83.971,19.420 L73.596,19.420 ZM120.489,21.175 C119.958,21.055 119.454,21.118 118.981,21.371 C118.477,21.656 118.143,22.139 118.028,22.749 C117.423,25.466 116.274,27.470 114.612,28.699 C113.134,29.771 111.168,30.315 108.768,30.315 C105.570,30.315 103.095,29.263 101.201,27.099 C99.164,24.768 98.133,21.366 98.133,16.988 C98.133,12.717 99.167,9.343 101.201,6.958 C103.148,4.739 105.623,3.659 108.768,3.659 C111.151,3.659 113.136,4.194 114.673,5.243 C116.375,6.402 117.429,8.090 117.892,10.392 C118.006,11.068 118.317,11.576 118.808,11.900 C119.249,12.197 119.790,12.280 120.266,12.162 C120.795,12.045 121.214,11.780 121.526,11.350 C121.844,10.884 121.965,10.370 121.882,9.795 C121.334,6.957 120.051,4.659 118.059,2.954 C115.746,1.027 112.621,0.052 108.768,0.052 C104.442,0.052 100.896,1.622 98.234,4.719 C95.534,7.815 94.167,11.942 94.167,16.988 C94.167,22.144 95.536,26.302 98.234,29.338 C100.873,32.380 104.417,33.923 108.768,33.923 C112.597,33.923 115.714,32.871 118.030,30.796 C119.972,29.079 121.325,26.720 122.051,23.774 C122.204,23.098 122.113,22.510 121.793,22.040 C121.500,21.590 121.042,21.290 120.489,21.175 ZM150.360,18.629 C149.588,17.537 148.567,16.623 147.322,15.905 C148.203,15.240 148.912,14.442 149.429,13.528 C150.151,12.333 150.517,10.959 150.517,9.442 C150.517,7.122 149.761,5.116 148.266,3.477 C146.614,1.683 144.389,0.772 141.659,0.772 L131.998,0.772 C130.478,0.772 129.262,1.271 128.384,2.261 C127.619,3.134 127.231,4.225 127.231,5.500 L127.231,28.515 C127.231,29.764 127.619,30.840 128.387,31.717 C129.262,32.702 130.476,33.201 131.998,33.201 L142.312,33.201 C145.326,33.201 147.771,32.206 149.573,30.241 C151.180,28.493 151.996,26.329 151.996,23.813 C151.996,21.850 151.445,20.106 150.360,18.629 ZM131.197,5.671 C131.197,5.277 131.290,4.979 131.479,4.758 C131.623,4.595 131.879,4.379 132.479,4.379 L141.399,4.379 C143.050,4.379 144.304,4.881 145.239,5.919 C146.121,6.854 146.551,7.993 146.551,9.400 C146.551,10.750 146.120,11.878 145.231,12.850 C144.275,13.904 143.020,14.418 141.399,14.418 L131.197,14.418 L131.197,5.671 ZM146.576,27.815 C145.503,29.011 144.094,29.595 142.268,29.595 L132.479,29.595 C131.880,29.595 131.623,29.381 131.485,29.223 C131.290,28.996 131.197,28.712 131.197,28.348 L131.197,17.988 L142.050,17.988 C143.914,17.988 145.367,18.572 146.498,19.777 C147.530,20.881 148.031,22.200 148.031,23.813 C148.031,25.400 147.542,26.746 146.576,27.815 Z" class="cls-3"/>
  <path d="M191.038,6.394 C190.063,6.394 189.290,6.557 188.719,6.882 C188.148,7.207 187.861,7.657 187.861,8.233 C187.861,8.860 188.084,9.362 188.527,9.739 C188.969,10.116 189.836,10.536 191.125,11.001 C192.202,11.393 192.986,11.746 193.477,12.059 C193.967,12.373 194.336,12.729 194.582,13.127 C194.826,13.527 194.949,13.995 194.949,14.534 C194.949,15.612 194.542,16.441 193.730,17.021 C192.917,17.600 191.763,17.890 190.268,17.890 C188.671,17.890 187.403,17.643 186.466,17.148 L186.466,15.963 C187.667,16.569 188.935,16.871 190.268,16.871 C191.448,16.871 192.344,16.673 192.954,16.279 C193.567,15.884 193.873,15.357 193.873,14.700 C193.873,14.095 193.629,13.585 193.142,13.172 C192.655,12.758 191.854,12.352 190.740,11.954 C189.547,11.518 188.707,11.144 188.224,10.830 C187.741,10.516 187.376,10.162 187.131,9.766 C186.886,9.372 186.762,8.890 186.762,8.321 C186.762,7.421 187.138,6.709 187.889,6.184 C188.640,5.660 189.689,5.397 191.038,5.397 C192.327,5.397 193.550,5.641 194.707,6.129 L194.301,7.125 C193.128,6.638 192.041,6.394 191.038,6.394 ZM182.423,16.007 L182.357,16.007 C181.579,17.262 180.199,17.890 178.214,17.890 C175.496,17.890 174.136,16.424 174.136,13.493 L174.136,5.630 L175.214,5.630 L175.214,13.427 C175.214,14.638 175.467,15.518 175.972,16.068 C176.477,16.618 177.261,16.894 178.324,16.894 C179.744,16.894 180.790,16.531 181.461,15.808 C182.131,15.084 182.467,13.907 182.467,12.275 L182.467,5.630 L183.543,5.630 L183.543,17.668 L182.621,17.668 L182.423,16.007 ZM169.180,0.436 L170.269,0.436 L170.269,17.668 L169.180,17.668 L169.180,0.436 ZM159.895,10.979 L157.412,10.979 L157.412,17.668 L156.290,17.668 L156.290,1.477 L160.225,1.477 C164.049,1.477 165.962,3.028 165.962,6.128 C165.962,7.694 165.434,8.894 164.379,9.728 C163.324,10.562 161.829,10.979 159.895,10.979 ZM163.610,3.399 C162.847,2.797 161.669,2.497 160.071,2.497 L157.412,2.497 L157.412,10.005 L159.621,10.005 C161.430,10.005 162.738,9.704 163.544,9.102 C164.350,8.501 164.753,7.525 164.753,6.173 C164.753,4.925 164.372,4.000 163.610,3.399 Z" class="cls-4"/>
</svg>
